inDegrees=yes
name=ik_S41_A02_T01
DataType=double
version=3
OpenSimVersion=4.3-2021-08-27-4bc7ad9
endheader
time	pelvis_tilt	pelvis_list	pelvis_rotation	pelvis_tx	pelvis_ty	pelvis_tz	hip_flexion_r	hip_adduction_r	hip_rotation_r	knee_angle_r	knee_angle_r_beta	ankle_angle_r	subtalar_angle_r	mtp_angle_r	hip_flexion_l	hip_adduction_l	hip_rotation_l	knee_angle_l	knee_angle_l_beta	ankle_angle_l	subtalar_angle_l	mtp_angle_l	lumbar_extension	lumbar_bending	lumbar_rotation	arm_flex_r	arm_add_r	arm_rot_r	elbow_flex_r	pro_sup_r	wrist_flex_r	wrist_dev_r	arm_flex_l	arm_add_l	arm_rot_l	elbow_flex_l	pro_sup_l	wrist_flex_l	wrist_dev_l
10.19999999999987	0.3149698570408411	4.181799811473115	-86.79590509035738	0	0.9399999999999999	0	-1.871116313202478	-1.47957793888492	-3.187092309386372	13.94885636922677	0.2434534705307889	0	0	0	17.84034240068668	3.548594250829926	-3.083215741851699	2.537700181323556	0.04429122359255316	0	0	0	0	0	0	24.29366232734325	-24.29366232734317	3.698347163797987	67.19822504071227	86.30165304625181	0	0	24.29366232734325	-24.29366232734317	3.698347163797987	67.19822504071227	86.3016530460081	0	0
10.21999999999987	0.2711506943476958	4.201514088202861	-86.64482913207905	0	0.9399999999999999	0	-2.315856802309487	-1.059070971793744	-4.53167314742452	11.31763251668382	0.1975299509469047	0	0	0	18.19576839752887	4.073948173365794	-4.681515659805964	0.351922882578679	0.006142213014107342	0	0	0	0	0	0	24.17206733833145	-24.17206733833136	3.685804518477946	67.02431113052133	86.31419569091004	0	0	24.17206733833145	-24.17206733833136	3.685804518477946	67.02431113052133	86.31419569066392	0	0
10.23999999999987	0.2794540852599779	4.194152575176385	-86.6424830021278	0	0.9399999999999999	0	-2.869177361464124	-0.7477727712096136	-6.730126214346318	9.190211879351088	0.1603994562505723	0	0	0	18.5924991028283	4.542315401226601	-6.500563863951229	-0.2817826917236227	-0.004918035745709391	0	0	0	0	0	0	24.16018897188923	-24.16018897188914	3.684734284783605	67.00971881684406	86.31526592454904	0	0	24.16018897188923	-24.16018897188914	3.684734284783605	67.00971881684406	86.31526592430274	0	0
10.25999999999987	0.1758117867186541	4.341497325561519	-86.33750849212555	0	0.9399999999999999	0	-2.086338800136732	-0.7729961496419693	-5.911619563515965	7.808355680960893	0.1362815157995715	0	0	0	19.19054403721575	4.966810287860925	-7.942172025590668	-0.7490295981468967	-0.01307303268255336	0	0	0	0	0	0	24.16655592153957	-24.16655592153948	3.685564349671767	67.02154822169807	86.31443585970624	0	0	24.16655592153957	-24.16655592153948	3.685564349671767	67.02154822169807	86.31443585946009	0	0
10.27999999999987	-0.0807990850534053	4.221406978685055	-85.22664103055716	0	0.9399999999999999	0	-1.131866059257396	-0.1750705212343812	-4.744933292560912	6.746117106662727	0.1177419552363781	0	0	0	19.4922801237099	5.422817277632363	-8.62986434288576	-0.5117114779372464	-0.008931050110251271	0	0	0	0	0	0	24.20190179921708	-24.20190179921699	3.689429446679926	67.07553491971407	86.31057076290394	0	0	24.20190179921708	-24.20190179921699	3.689429446679926	67.07553491971407	86.31057076265853	0	0
10.29999999999987	-0.09962603600718092	4.276172766546606	-85.07351197705293	0	0.9399999999999999	0	-0.4018171470757332	-0.2798173919763947	-4.188975775561284	5.946725852755222	0.1037899458440461	0	0	0	19.92989442041225	5.73552115193834	-10.81889511338094	-1.076280201723827	-0.01878463319410953	0	0	0	0	0	0	24.21211071708218	-24.21211071708209	3.690645361789808	67.09269017188774	86.30935484785969	0	0	24.21211071708218	-24.21211071708209	3.690645361789808	67.09269017188774	86.30935484761449	0	0
10.31999999999987	-0.1266019161995399	4.428666606760212	-84.92394420421454	0	0.9399999999999999	0	0.4558338160719848	-0.3825199040999785	-3.750547210094023	5.306000788587096	0.0926071838742604	0	0	0	20.59434069681977	6.067296698236537	-13.01235342386681	-0.303386283084271	-0.005295089545208105	0	0	0	0	0	0	24.25555851747382	-24.25555851747373	3.695396368431433	67.15904485581903	86.30460384147115	0	0	24.25555851747382	-24.25555851747373	3.695396368431433	67.15904485581903	86.30460384122679	0	0
10.33999999999987	-0.131371611992686	4.599720010248553	-84.91540722511311	0	0.9399999999999999	0	1.672604853280418	-0.05117612620740915	-2.449555896170497	4.95975997067932	0.08656414159697155	0	0	0	21.19464871619768	6.329298723327822	-15.74952248881646	1.731875184509704	0.03022692420327864	0	0	0	0	0	0	24.31776773947352	-24.31776773947343	3.702121593019438	67.25283506331836	86.29787861724068	0	0	24.31776773947352	-24.31776773947343	3.702121593019438	67.25283506331836	86.29787861699761	0	0
10.35999999999987	-0.08882090065905747	4.842443260664309	-84.62915636019193	0	0.9399999999999999	0	1.935650382352813	-0.06468282731735772	-2.580867191305821	4.044475225585249	0.070589409201803	0	0	0	22.12725993980322	6.66575188569554	-16.7664618653839	3.446629520313348	0.0601550332259007	0	0	0	0	0	0	24.32243597107342	-24.32243597107333	3.702698177104883	67.26100083539134	86.29730203318647	0	0	24.32243597107342	-24.32243597107333	3.702698177104883	67.26100083539134	86.29730203294355	0	0
10.37999999999987	-0.02774016022809865	4.810299386704546	-84.13043243468512	0	0.9399999999999999	0	2.763042286368434	-0.1787960432686236	-2.529774321973515	3.921380636574514	0.06844100333217644	0	0	0	22.57270727559616	6.557011774072103	-16.36230996491761	6.708047754782963	0.1170775197019759	0	0	0	0	0	0	24.33185871820237	-24.33185871820228	3.703858361824838	67.27742484613438	86.29614184852939	0	0	24.33185871820237	-24.33185871820228	3.703858361824838	67.27742484613438	86.29614184828672	0	0
10.39999999999987	0.05334594360982771	4.58746409748557	-83.64252681861305	0	0.9399999999999999	0	3.91100286987086	-0.231076700893056	-4.472790084283006	4.938619280829156	0.08619516695294326	0	0	0	22.82250781790116	6.087311579436064	-14.47449984291151	10.88803426841814	0.1900320470538686	0	0	0	0	0	0	24.4829238827951	-24.48292388279501	3.719820741428896	67.49938160849976	86.28017946977066	0	0	24.4829238827951	-24.48292388279501	3.719820741428896	67.49938160849976	86.28017946953096	0	0
10.41999999999987	0.1145430968029519	4.539049949892525	-83.23459220078449	0	0.9399999999999999	0	3.861952980965727	-0.303561397383504	-4.817604294357749	4.201617673895366	0.07333206231945953	0	0	0	23.14626363716264	5.311571117157698	-11.53316001418968	18.19414508782698	0.3175477363681337	0	0	0	0	0	0	24.70465113165091	-24.70465113165081	3.743156969867855	67.82368516275724	86.25684324256649	0	0	24.70465113165091	-24.70465113165081	3.743156969867855	67.82368516275724	86.25684324233117	0	0
10.43999999999987	0.1380513450596864	4.664044074376343	-82.92612690789923	0	0.9399999999999999	0	4.916938753643304	-0.5445369707159089	-4.714014460331756	4.270190586245176	0.07452888541764521	0	0	0	23.37830754214676	4.842137334308439	-9.421664526491199	21.03752611796815	0.3671740972328452	0	0	0	0	0	0	24.86312066346462	-24.86312066346452	3.759657946200718	68.05268896304783	86.24034226710505	0	0	24.86312066346462	-24.86312066346452	3.759657946200718	68.05268896304783	86.24034226687279	0	0
10.45999999999987	0.1929602598646863	4.447700847883598	-82.8036248488671	0	0.9399999999999999	0	4.716113891260785	-0.5765372629651385	-4.732948696207935	3.682720164042045	0.06427559229211936	0	0	0	22.90199709725622	4.248100908115107	-7.249846154004526	26.39548743844818	0.4606881634697248	0	0	0	0	0	0	25.02307401389878	-25.02307401389869	3.776264275741712	68.28307857925697	86.22373593844057	0	0	25.02307401389878	-25.02307401389869	3.776264275741712	68.28307857925697	86.22373593821146	0	0
10.47999999999987	0.2742929612419788	3.730416751436654	-82.91786129956293	0	0.9399999999999999	0	5.561193867269759	-0.7528259473411806	-5.102140087387822	4.775807598333008	0.08335356703267385	0	0	0	21.50413902995492	3.392884183876286	-5.131689626807496	33.94587201651979	0.5924672341488771	0	0	0	0	0	0	25.23473023915171	-25.23473023915162	3.798069162783599	68.58532693180784	86.20193105254809	0	0	25.23473023915171	-25.23473023915162	3.798069162783599	68.58532693180784	86.2019310523231	0	0
10.49999999999986	0.2819549917317557	2.950064038311428	-83.208382511035	0	0.9399999999999999	0	6.563080378987391	-1.050427167075035	-4.277508822222778	5.814541175780145	0.1014828880101459	0	0	0	19.61563769513907	2.538830259349346	-3.859951771586041	35.53762708265511	0.6202486009382387	0	0	0	0	0	0	25.40328110264763	-25.40328110264754	3.815270815483574	68.82350609564752	86.18472940075326	0	0	25.40328110264763	-25.40328110264754	3.815270815483574	68.82350609564752	86.18472940053151	0	0
10.51999999999986	0.1818917297288537	2.501975775457904	-83.52505667165815	0	0.9399999999999999	0	6.740919573472977	-1.173650374947506	-4.734294948455969	6.103170784657475	0.1065204250037988	0	0	0	17.75730639243073	1.646088681794086	-3.062187083451022	34.24566551023398	0.5976996176902467	0	0	0	0	0	0	25.41112429630967	-25.41112429630957	3.816205807966105	68.83664810525612	86.18379440832118	0	0	25.41112429630967	-25.41112429630957	3.816205807966105	68.83664810525612	86.18379440809954	0	0
10.53999999999986	0.02362510222825526	2.24131874894484	-83.84535959472836	0	0.9399999999999999	0	7.181938672151739	-1.150609813507306	-5.353385744672781	6.570200957186334	0.1146716392205845	0	0	0	15.71226287021601	0.08499959748518955	-2.116897360253339	41.40992072226177	0.7227394595932962	0	0	0	0	0	0	25.61308043435908	-25.61308043435898	3.836757599880195	69.12113865023886	86.16324261748807	0	0	25.61308043435908	-25.61308043435898	3.836757599880195	69.12113865023886	86.16324261727027	0	0
10.55999999999986	-0.1903063341940459	2.039088605396073	-84.19766175188477	0	0.9399999999999999	0	7.773088320864125	-0.9430395077114402	-5.383654801841108	6.76710621880791	0.1181082843503818	0	0	0	13.40678729628812	-1.159703219326869	-2.052996420622404	42.78690578795396	0.7467723827404152	0	0	0	0	0	0	25.62143683536372	-25.62143683536363	3.837745002180579	69.13499664561718	86.16225521524079	0	0	25.62143683536372	-25.62143683536363	3.837745002180579	69.13499664561718	86.16225521502321	0	0
10.57999999999986	-0.4295502079992322	1.819489032224735	-84.58379472328194	0	0.9399999999999999	0	8.313024431081727	-0.6667706350729525	-5.553683245971087	7.014125017506402	0.1224195757019916	0	0	0	10.78939938641621	-2.251620697442562	-2.7062968634532	43.08048150225382	0.7518962455588422	0	0	0	0	0	0	25.62580261704428	-25.62580261704418	3.838258262145177	69.14219666486215	86.1617419553038	0	0	25.62580261704428	-25.62580261704418	3.838258262145177	69.14219666486215	86.16174195508633	0	0
10.59999999999986	-0.6819868007560318	1.729425314883216	-84.98031546517628	0	0.9399999999999999	0	8.298286560033581	-0.3450504490365988	-5.127494991544508	6.7261919155998	0.117394195048241	0	0	0	10.65926565447538	-2.754559546447686	-2.999992999896627	44.61530247167715	0.7786839249039303	0	0	0	0	0	0	25.63144482218093	-25.63144482218084	3.838920399764596	69.15148394589173	86.16107981771998	0	0	25.63144482218093	-25.63144482218084	3.838920399764596	69.15148394589173	86.16107981750262	0	0
10.61999999999986	-0.9484047949928532	1.756730139161361	-85.31939867921926	0	0.9399999999999999	0	9.361543524202402	-0.1154732144609877	-4.832495425173851	7.214524050606306	0.125917198647398	0	0	0	5.92549432007567	-4.204378772296679	-4.91201037536633	40.29146382614888	0.7032187042144902	0	0	0	0	0	0	25.72981503493608	-25.729815034936	3.848873713346823	69.28917053779695	86.15112650466065	0	0	25.72981503493608	-25.729815034936	3.848873713346823	69.28917053779695	86.15112650444514	0	0
10.63999999999986	-1.19357953773357	1.785801688880415	-85.44779125860595	0	0.9399999999999999	0	12.25503222696974	0.369268553529391	-1.844390088037751	8.762123714050295	0.1529279082772518	0	0	0	3.633413909881187	-5.026861054683608	-4.978809637939107	38.11564446545271	0.6652434924417039	0	0	0	0	0	0	25.81684344233966	-25.81684344233959	3.857698323277877	69.41127464149649	86.14230189519344	0	0	25.81684344233966	-25.81684344233959	3.857698323277877	69.41127464149649	86.14230189497958	0	0
10.65999999999986	-1.443473413029144	1.921979180998769	-85.43872161107235	0	0.9399999999999999	0	13.50036304273009	0.6154976632100519	-1.482754861468411	9.060119113390211	0.1581289091515287	0	0	0	1.399841352954058	-5.630713134628288	-5.220578417222865	32.10092503649299	0.5602668348226836	0	0	0	0	0	0	25.82604059960607	-25.82604059960601	3.858768935710503	69.42627102978572	86.14123128281845	0	0	25.82604059960607	-25.82604059960601	3.858768935710503	69.42627102978572	86.14123128260461	0	0
